<svg width="1130" height="195" viewBox="0 0 1130 195" fill="none" xmlns="http://www.w3.org/2000/svg">
<path d="M63.77 75.42C28.55 68.21 21.88 59.14 21.88 44.85V44.45C21.88 29.37 36.29 18.42 56.3 18.42C73.11 18.42 86.45 23.49 99.52 34.7L101.12 36.17L110.86 24.16L109.26 22.83C92.85 9.61 77.64 4.28 56.83 4.28C28.28 4.27 6.8 22.03 6.8 45.52V45.92C6.8 69.68 21.87 82.49 58.69 89.97C92.71 96.78 99.25 105.72 99.25 119.74V120.14C99.25 136.42 84.58 147.77 63.63 147.77C42.68 147.77 28.41 141.76 11.6 126.15L10 124.68L0 136.16L1.47 137.49C20.41 154.31 39.36 161.92 62.97 161.92C93.25 161.92 114.46 144.3 114.46 119.07V118.67C114.46 95.58 99.25 82.76 63.77 75.42Z" fill="white"/>
<path d="M161.82 4.14001H144.61V22.56H161.82V4.14001Z" fill="white"/>
<path d="M160.35 46.85H145.81V159.77H160.35V46.85Z" fill="white"/>
<path d="M322.04 44.31C305.36 44.31 292.29 51.52 282.95 65.67C277.75 56.46 266.94 44.31 246.13 44.31C228.79 44.31 218.65 52.72 211.98 61.66V46.98H197.44V159.77H211.98V95.03C211.98 74.34 226.39 58.06 244.66 58.06C262.93 58.06 274.41 71.27 274.41 92.5V159.77H288.95V94.36C288.95 69.4 305.63 58.06 321.23 58.06C340.31 58.06 351.38 70.87 351.38 93.03V159.77H365.92V91.83C365.92 63 348.71 44.31 322.03 44.31H322.04Z" fill="white"/>
<path d="M456.38 58.46C479.46 58.46 496.93 77.68 496.93 103.31V103.71C496.93 130.27 480.66 148.16 456.38 148.16C436.1 148.16 414.09 131.07 414.09 103.58V103.18C414.09 75.68 435.97 58.6 456.38 58.6V58.47V58.46ZM457.45 44.31C440.64 44.31 426.23 51.92 414.76 66.73V46.84H400.22V193.8H414.76V140.54C425.97 154.96 440.38 162.16 457.45 162.16C484.4 162.16 512.41 140.14 512.41 103.16V102.76C512.41 66.06 484.53 44.16 457.45 44.16V44.29V44.31Z" fill="white"/>
<path d="M556.83 0H542.29V159.77H556.83V0Z" fill="white"/>
<path d="M679.57 46.85L641.68 140.95L597.92 46.85H581.11L634.34 157.1C625.8 176.59 618.6 180.59 609.79 180.59C601.65 180.59 597.38 179.26 592.18 176.72L590.18 175.79L584.98 188.87L586.85 189.67C594.86 193.14 600.99 194.47 609.26 194.47C626.47 194.47 637.94 184.86 647.41 162.3L695.7 46.84H679.56L679.57 46.85Z" fill="white"/>
<path d="M837.65 119.86C848.46 119.86 854.06 115.32 854.06 109.05V108.65C854.06 102.24 848.72 97.84 837.92 97.84H812.84V120H837.79L837.66 119.87L837.65 119.86ZM834.45 67C845.12 67 850.19 63.4 850.19 56.72V56.32C850.19 49.65 844.85 46.04 834.18 46.04H812.7V67H834.45ZM764.15 8.41H847.66C868.34 8.41 881.28 13.08 890.08 21.89C895.42 27.23 899.29 34.84 899.29 45.12V45.52C899.29 63.27 888.62 74.08 872.61 79.69C891.82 85.3 904.09 95.44 904.09 116V116.4C904.09 140.29 884.48 157.78 846.72 157.78H764.01V8.54L764.14 8.41H764.15Z" fill="white"/>
<path d="M965.45 8.41H915.56V157.64H965.45V8.41Z" fill="white"/>
<path d="M979.46 83.42V83.02C979.46 38.44 1014.68 5.20001 1061.77 5.20001C1087.38 5.20001 1108.06 13.74 1124.2 27.76L1096.32 61.4C1086.58 53.12 1075.64 48.45 1063.23 48.45C1043.89 48.45 1029.75 63.4 1029.75 83.69V84.09C1029.75 105.18 1044.42 119.73 1065.37 119.73C1073.91 119.73 1078.58 118.4 1082.45 116.26V101.31H1056.84V69.28H1129.15V138.42C1113.01 151.63 1090.33 160.84 1063.25 160.84C1016.83 160.84 979.47 129.74 979.47 83.42H979.46Z" fill="white"/>
</svg>
